<mxfile host="65bd71144e">
    <diagram id="xJ1miVXTMmLAcVZ6gy3l" name="Page-1">
        <mxGraphModel dx="1220" dy="828" grid="1" gridSize="10" guides="1" tooltips="1" connect="1" arrows="1" fold="1" page="1" pageScale="1" pageWidth="827" pageHeight="1169" math="0" shadow="0">
            <root>
                <mxCell id="0"/>
                <mxCell id="1" parent="0"/>
                <mxCell id="2" value="" style="whiteSpace=wrap;html=1;fillColor=none;movable=0;resizable=0;rotatable=0;deletable=0;editable=0;connectable=0;" parent="1" vertex="1">
                    <mxGeometry x="80" y="160" width="666" height="700" as="geometry"/>
                </mxCell>
                <mxCell id="4" value="Caisse enregistreuse" style="text;html=1;align=center;verticalAlign=middle;resizable=0;points=[];autosize=1;strokeColor=#005700;fillColor=#008a00;fontColor=#ffffff;fontSize=20;fontStyle=0" parent="1" vertex="1">
                    <mxGeometry x="309" y="105" width="210" height="40" as="geometry"/>
                </mxCell>
                <mxCell id="7" value="&lt;font style=&quot;font-size: 13px;&quot;&gt;Caissier&lt;/font&gt;" style="shape=umlActor;verticalLabelPosition=bottom;verticalAlign=top;html=1;outlineConnect=0;fontSize=20;fillColor=none;" parent="1" vertex="1">
                    <mxGeometry x="30" y="450" width="30" height="60" as="geometry"/>
                </mxCell>
                <mxCell id="10" value="&lt;font style=&quot;font-size: 13px;&quot;&gt;Banque&lt;/font&gt;" style="shape=umlActor;verticalLabelPosition=bottom;verticalAlign=top;html=1;outlineConnect=0;fontSize=20;fillColor=none;" parent="1" vertex="1">
                    <mxGeometry x="770" y="740" width="30" height="60" as="geometry"/>
                </mxCell>
                <mxCell id="11" value="&lt;font style=&quot;font-size: 13px;&quot;&gt;Système&amp;nbsp;&lt;br&gt;gestion des&lt;br&gt;stocks&lt;/font&gt;" style="shape=umlActor;verticalLabelPosition=bottom;verticalAlign=top;html=1;outlineConnect=0;fontSize=20;fillColor=none;" parent="1" vertex="1">
                    <mxGeometry x="770" y="470" width="30" height="60" as="geometry"/>
                </mxCell>
                <mxCell id="13" value="&lt;font style=&quot;font-size: 13px;&quot;&gt;Responsable&lt;br&gt;magasin&lt;/font&gt;" style="shape=umlActor;verticalLabelPosition=bottom;verticalAlign=top;html=1;outlineConnect=0;fontSize=20;fillColor=none;" parent="1" vertex="1">
                    <mxGeometry x="770" y="170" width="30" height="60" as="geometry"/>
                </mxCell>
                <mxCell id="15" value="Enregistrer des articles" style="ellipse;whiteSpace=wrap;html=1;fontSize=13;fillColor=#647687;fontColor=#ffffff;strokeColor=#314354;" parent="1" vertex="1">
                    <mxGeometry x="150" y="340" width="90" height="60" as="geometry"/>
                </mxCell>
                <mxCell id="43" style="edgeStyle=none;html=1;entryX=1;entryY=0;entryDx=0;entryDy=0;fontSize=13;dashed=1;" parent="1" source="16" target="17" edge="1">
                    <mxGeometry relative="1" as="geometry"/>
                </mxCell>
                <mxCell id="44" value="&amp;lt;&amp;lt;include&amp;gt;&amp;gt;" style="edgeLabel;html=1;align=center;verticalAlign=middle;resizable=0;points=[];fontSize=13;" parent="43" vertex="1" connectable="0">
                    <mxGeometry x="-0.4518" relative="1" as="geometry">
                        <mxPoint x="-6" y="6" as="offset"/>
                    </mxGeometry>
                </mxCell>
                <mxCell id="83" style="edgeStyle=none;html=1;entryX=0;entryY=0.5;entryDx=0;entryDy=0;dashed=1;" parent="1" source="17" target="28" edge="1">
                    <mxGeometry relative="1" as="geometry"/>
                </mxCell>
                <mxCell id="84" value="&amp;lt;&amp;lt;include&amp;gt;&amp;gt;" style="edgeLabel;html=1;align=center;verticalAlign=middle;resizable=0;points=[];fontSize=13;" parent="83" vertex="1" connectable="0">
                    <mxGeometry x="-0.3074" y="1" relative="1" as="geometry">
                        <mxPoint x="10" y="9" as="offset"/>
                    </mxGeometry>
                </mxCell>
                <mxCell id="17" value="Finaliser la vente" style="ellipse;whiteSpace=wrap;html=1;fontSize=13;fillColor=#647687;fontColor=#ffffff;strokeColor=#314354;" parent="1" vertex="1">
                    <mxGeometry x="155" y="470" width="90" height="60" as="geometry"/>
                </mxCell>
                <mxCell id="25" style="edgeStyle=none;html=1;entryX=0.5;entryY=0;entryDx=0;entryDy=0;fontSize=13;dashed=1;" parent="1" source="19" target="28" edge="1">
                    <mxGeometry relative="1" as="geometry">
                        <mxPoint x="185" y="500" as="targetPoint"/>
                    </mxGeometry>
                </mxCell>
                <mxCell id="26" value="&amp;lt;&amp;lt;extend&amp;gt;&amp;gt;" style="edgeLabel;html=1;align=center;verticalAlign=middle;resizable=0;points=[];fontSize=13;" parent="25" vertex="1" connectable="0">
                    <mxGeometry x="-0.5167" y="-2" relative="1" as="geometry">
                        <mxPoint x="8" y="14" as="offset"/>
                    </mxGeometry>
                </mxCell>
                <mxCell id="19" value="Enregistrer ticket de réduction" style="ellipse;whiteSpace=wrap;html=1;fontSize=13;fillColor=#e3c800;fontColor=#000000;strokeColor=#B09500;" parent="1" vertex="1">
                    <mxGeometry x="390" y="310" width="90" height="60" as="geometry"/>
                </mxCell>
                <mxCell id="31" style="edgeStyle=none;html=1;fontSize=13;entryX=0.5;entryY=1;entryDx=0;entryDy=0;" parent="1" source="20" target="28" edge="1">
                    <mxGeometry relative="1" as="geometry"/>
                </mxCell>
                <mxCell id="58" style="edgeStyle=none;html=1;entryX=0.5;entryY=0;entryDx=0;entryDy=0;dashed=1;fontSize=13;" parent="1" source="20" target="57" edge="1">
                    <mxGeometry relative="1" as="geometry"/>
                </mxCell>
                <mxCell id="59" value="&amp;lt;&amp;lt;include&amp;gt;&amp;gt;" style="edgeLabel;html=1;align=center;verticalAlign=middle;resizable=0;points=[];fontSize=13;" parent="58" vertex="1" connectable="0">
                    <mxGeometry x="-0.4902" relative="1" as="geometry">
                        <mxPoint x="-25" y="24" as="offset"/>
                    </mxGeometry>
                </mxCell>
                <mxCell id="64" style="edgeStyle=none;html=1;entryX=0.5;entryY=0;entryDx=0;entryDy=0;dashed=1;fontSize=13;" parent="1" source="20" target="63" edge="1">
                    <mxGeometry relative="1" as="geometry"/>
                </mxCell>
                <mxCell id="65" value="&amp;lt;&amp;lt;extend&amp;gt;&amp;gt;" style="edgeLabel;html=1;align=center;verticalAlign=middle;resizable=0;points=[];fontSize=13;" parent="64" vertex="1" connectable="0">
                    <mxGeometry x="-0.5313" relative="1" as="geometry">
                        <mxPoint x="12" y="25" as="offset"/>
                    </mxGeometry>
                </mxCell>
                <mxCell id="20" value="Paiement liquide" style="ellipse;whiteSpace=wrap;html=1;fontSize=13;fillColor=#628A4B;fontColor=#ffffff;strokeColor=#005700;" parent="1" vertex="1">
                    <mxGeometry x="135" y="635" width="90" height="60" as="geometry"/>
                </mxCell>
                <mxCell id="33" style="edgeStyle=none;html=1;entryX=0.5;entryY=1;entryDx=0;entryDy=0;fontSize=13;exitX=0.5;exitY=0;exitDx=0;exitDy=0;" parent="1" source="21" target="28" edge="1">
                    <mxGeometry relative="1" as="geometry"/>
                </mxCell>
                <mxCell id="72" style="edgeStyle=none;html=1;entryX=0.5;entryY=0;entryDx=0;entryDy=0;fontSize=13;dashed=1;exitX=0.5;exitY=1;exitDx=0;exitDy=0;" parent="1" source="21" target="70" edge="1">
                    <mxGeometry relative="1" as="geometry"/>
                </mxCell>
                <mxCell id="73" value="&amp;lt;&amp;lt;include&amp;gt;&amp;gt;" style="edgeLabel;html=1;align=center;verticalAlign=middle;resizable=0;points=[];fontSize=13;" parent="72" vertex="1" connectable="0">
                    <mxGeometry x="-0.5277" y="-2" relative="1" as="geometry">
                        <mxPoint x="-12" y="16" as="offset"/>
                    </mxGeometry>
                </mxCell>
                <mxCell id="21" value="Paiement chèque" style="ellipse;whiteSpace=wrap;html=1;fontSize=13;fillColor=#628A4B;fontColor=#ffffff;strokeColor=#3A5431;" parent="1" vertex="1">
                    <mxGeometry x="340" y="635" width="90" height="60" as="geometry"/>
                </mxCell>
                <mxCell id="32" style="edgeStyle=none;html=1;fontSize=13;entryX=0.5;entryY=1;entryDx=0;entryDy=0;" parent="1" source="22" target="28" edge="1">
                    <mxGeometry relative="1" as="geometry">
                        <mxPoint x="240" y="420" as="targetPoint"/>
                    </mxGeometry>
                </mxCell>
                <mxCell id="22" value="Paiement CB" style="ellipse;whiteSpace=wrap;html=1;fontSize=13;fillColor=#628A4B;fontColor=#ffffff;strokeColor=#3A5431;" parent="1" vertex="1">
                    <mxGeometry x="550" y="635" width="90" height="60" as="geometry"/>
                </mxCell>
                <mxCell id="28" value="Valider paiement" style="ellipse;whiteSpace=wrap;html=1;fontSize=13;fillColor=#647687;fontColor=#ffffff;strokeColor=#314354;" parent="1" vertex="1">
                    <mxGeometry x="340" y="470" width="90" height="60" as="geometry"/>
                </mxCell>
                <mxCell id="34" value="" style="endArrow=none;html=1;fontSize=13;entryX=0.5;entryY=0.5;entryDx=0;entryDy=0;entryPerimeter=0;exitX=1;exitY=1;exitDx=0;exitDy=0;" parent="1" source="22" target="10" edge="1">
                    <mxGeometry width="50" height="50" relative="1" as="geometry">
                        <mxPoint x="430.00000000000455" y="265.0000000000001" as="sourcePoint"/>
                        <mxPoint x="785" y="194.9999999999999" as="targetPoint"/>
                    </mxGeometry>
                </mxCell>
                <mxCell id="35" value="&amp;lt;&amp;lt;secondary&amp;gt;&amp;gt;" style="edgeLabel;html=1;align=center;verticalAlign=middle;resizable=0;points=[];fontSize=13;" parent="34" vertex="1" connectable="0">
                    <mxGeometry x="0.2655" y="-1" relative="1" as="geometry">
                        <mxPoint x="-41" y="-29" as="offset"/>
                    </mxGeometry>
                </mxCell>
                <mxCell id="37" value="" style="endArrow=none;html=1;fontSize=13;entryX=0.5;entryY=0.5;entryDx=0;entryDy=0;entryPerimeter=0;exitX=1;exitY=1;exitDx=0;exitDy=0;" parent="1" source="21" target="10" edge="1">
                    <mxGeometry width="50" height="50" relative="1" as="geometry">
                        <mxPoint x="445.00000000000455" y="330.0000000000001" as="sourcePoint"/>
                        <mxPoint x="800" y="259.9999999999999" as="targetPoint"/>
                        <Array as="points">
                            <mxPoint x="600" y="750"/>
                        </Array>
                    </mxGeometry>
                </mxCell>
                <mxCell id="38" value="&amp;lt;&amp;lt;secondary&amp;gt;&amp;gt;" style="edgeLabel;html=1;align=center;verticalAlign=middle;resizable=0;points=[];fontSize=13;" parent="37" vertex="1" connectable="0">
                    <mxGeometry x="0.2655" y="-1" relative="1" as="geometry">
                        <mxPoint x="-45" y="-19" as="offset"/>
                    </mxGeometry>
                </mxCell>
                <mxCell id="40" value="" style="endArrow=none;html=1;fontSize=13;entryX=0.5;entryY=0.5;entryDx=0;entryDy=0;exitX=0;exitY=1;exitDx=0;exitDy=0;entryPerimeter=0;" parent="1" source="15" target="7" edge="1">
                    <mxGeometry width="50" height="50" relative="1" as="geometry">
                        <mxPoint x="675" y="475" as="sourcePoint"/>
                        <mxPoint x="770" y="505" as="targetPoint"/>
                    </mxGeometry>
                </mxCell>
                <mxCell id="41" value="" style="endArrow=none;html=1;fontSize=13;entryX=0.5;entryY=0.5;entryDx=0;entryDy=0;entryPerimeter=0;exitX=0;exitY=0.5;exitDx=0;exitDy=0;" parent="1" source="17" target="7" edge="1">
                    <mxGeometry width="50" height="50" relative="1" as="geometry">
                        <mxPoint x="160" y="470" as="sourcePoint"/>
                        <mxPoint x="758.18" y="584.79" as="targetPoint"/>
                    </mxGeometry>
                </mxCell>
                <mxCell id="49" value="Initialiser les caisses quotidiennement" style="ellipse;whiteSpace=wrap;html=1;fontSize=13;fillColor=#7385AB;strokeColor=#7385AB;fontColor=#ffffff;" parent="1" vertex="1">
                    <mxGeometry x="555.5" y="170" width="130" height="60" as="geometry"/>
                </mxCell>
                <mxCell id="50" value="" style="endArrow=none;html=1;fontSize=13;entryX=0.5;entryY=0.5;entryDx=0;entryDy=0;exitX=1;exitY=0.5;exitDx=0;exitDy=0;entryPerimeter=0;" parent="1" source="49" target="13" edge="1">
                    <mxGeometry width="50" height="50" relative="1" as="geometry">
                        <mxPoint x="639.9998051533947" y="210.00320343559648" as="sourcePoint"/>
                        <mxPoint x="798.18" y="288.78999999999996" as="targetPoint"/>
                    </mxGeometry>
                </mxCell>
                <mxCell id="52" style="edgeStyle=none;html=1;entryX=0.5;entryY=0;entryDx=0;entryDy=0;dashed=1;fontSize=13;" parent="1" source="51" target="15" edge="1">
                    <mxGeometry relative="1" as="geometry"/>
                </mxCell>
                <mxCell id="53" value="&amp;lt;&amp;lt;extend&amp;gt;&amp;gt;" style="edgeLabel;html=1;align=center;verticalAlign=middle;resizable=0;points=[];fontSize=13;" parent="52" vertex="1" connectable="0">
                    <mxGeometry x="-0.515" y="1" relative="1" as="geometry">
                        <mxPoint x="3" y="8" as="offset"/>
                    </mxGeometry>
                </mxCell>
                <mxCell id="51" value="Saisir une quantité si supérieure à 1" style="ellipse;whiteSpace=wrap;html=1;fontSize=13;fillColor=#e3c800;fontColor=#000000;strokeColor=#B09500;" parent="1" vertex="1">
                    <mxGeometry x="135" y="230" width="120" height="60" as="geometry"/>
                </mxCell>
                <mxCell id="57" value="Encaisser somme" style="ellipse;whiteSpace=wrap;html=1;fontSize=13;fillColor=#a20025;fontColor=#ffffff;strokeColor=#6F0000;" parent="1" vertex="1">
                    <mxGeometry x="84" y="775" width="80" height="50" as="geometry"/>
                </mxCell>
                <mxCell id="63" value="Rendre monnaie" style="ellipse;whiteSpace=wrap;html=1;fontSize=13;fillColor=#e3c800;fontColor=#000000;strokeColor=#B09500;" parent="1" vertex="1">
                    <mxGeometry x="190" y="775" width="80" height="50" as="geometry"/>
                </mxCell>
                <mxCell id="70" value="Enregistrer informations d'identité du client" style="ellipse;whiteSpace=wrap;html=1;fontSize=11;fillColor=#a20025;fontColor=#ffffff;strokeColor=#6F0000;" parent="1" vertex="1">
                    <mxGeometry x="290" y="770" width="110" height="60" as="geometry"/>
                </mxCell>
                <mxCell id="71" value="Imprimer montant sur le chèque" style="ellipse;whiteSpace=wrap;html=1;fontSize=11;fillColor=#a20025;fontColor=#ffffff;strokeColor=#6F0000;" parent="1" vertex="1">
                    <mxGeometry x="449" y="770" width="85.5" height="60" as="geometry"/>
                </mxCell>
                <mxCell id="74" style="edgeStyle=none;html=1;entryX=0;entryY=0;entryDx=0;entryDy=0;fontSize=13;dashed=1;exitX=0.5;exitY=1;exitDx=0;exitDy=0;" parent="1" source="21" target="71" edge="1">
                    <mxGeometry relative="1" as="geometry">
                        <mxPoint x="302.76443768929903" y="843.6857629182227" as="sourcePoint"/>
                        <mxPoint x="369.9999999999998" y="815" as="targetPoint"/>
                    </mxGeometry>
                </mxCell>
                <mxCell id="75" value="&amp;lt;&amp;lt;include&amp;gt;&amp;gt;" style="edgeLabel;html=1;align=center;verticalAlign=middle;resizable=0;points=[];fontSize=13;" parent="74" vertex="1" connectable="0">
                    <mxGeometry x="-0.5277" y="-2" relative="1" as="geometry">
                        <mxPoint x="27" y="23" as="offset"/>
                    </mxGeometry>
                </mxCell>
                <mxCell id="79" style="edgeStyle=none;html=1;entryX=0;entryY=1;entryDx=0;entryDy=0;dashed=1;fontSize=11;exitX=1;exitY=0;exitDx=0;exitDy=0;" parent="1" source="28" target="78" edge="1">
                    <mxGeometry relative="1" as="geometry">
                        <mxPoint x="580.0047669479436" y="489.9962647657941" as="sourcePoint"/>
                    </mxGeometry>
                </mxCell>
                <mxCell id="80" value="&amp;lt;&amp;lt;include&amp;gt;&amp;gt;" style="edgeLabel;html=1;align=center;verticalAlign=middle;resizable=0;points=[];fontSize=13;" parent="79" vertex="1" connectable="0">
                    <mxGeometry x="-0.4776" y="1" relative="1" as="geometry">
                        <mxPoint x="21" y="-15" as="offset"/>
                    </mxGeometry>
                </mxCell>
                <mxCell id="88" style="edgeStyle=none;html=1;entryX=0;entryY=0.5;entryDx=0;entryDy=0;dashed=1;exitX=1;exitY=0.5;exitDx=0;exitDy=0;" edge="1" parent="1" source="28" target="86">
                    <mxGeometry relative="1" as="geometry">
                        <mxPoint x="570" y="500" as="sourcePoint"/>
                    </mxGeometry>
                </mxCell>
                <mxCell id="89" value="&amp;lt;&amp;lt;include&amp;gt;&amp;gt;" style="edgeLabel;html=1;align=center;verticalAlign=middle;resizable=0;points=[];fontSize=13;" vertex="1" connectable="0" parent="88">
                    <mxGeometry x="-0.3232" y="-2" relative="1" as="geometry">
                        <mxPoint x="14" y="-1" as="offset"/>
                    </mxGeometry>
                </mxCell>
                <mxCell id="78" value="Imprimer ticket" style="ellipse;whiteSpace=wrap;html=1;fontSize=13;fillColor=#a20025;fontColor=#ffffff;strokeColor=#6F0000;" parent="1" vertex="1">
                    <mxGeometry x="534.5" y="330" width="80" height="50" as="geometry"/>
                </mxCell>
                <mxCell id="16" value="Afficher total des achats" style="ellipse;whiteSpace=wrap;html=1;fontSize=13;fillColor=#a20025;fontColor=#ffffff;strokeColor=#6F0000;" parent="1" vertex="1">
                    <mxGeometry x="265" y="370" width="90" height="60" as="geometry"/>
                </mxCell>
                <mxCell id="86" value="Mise à jour du système après chaque vente" style="ellipse;whiteSpace=wrap;html=1;fontSize=13;fillColor=#7385AB;fontColor=#ffffff;strokeColor=#7385AB;" parent="1" vertex="1">
                    <mxGeometry x="560" y="465" width="121" height="70" as="geometry"/>
                </mxCell>
                <mxCell id="87" value="" style="endArrow=none;html=1;fontSize=13;entryX=0.5;entryY=0.5;entryDx=0;entryDy=0;exitX=1;exitY=0.5;exitDx=0;exitDy=0;entryPerimeter=0;" parent="1" target="11" edge="1" source="86">
                    <mxGeometry width="50" height="50" relative="1" as="geometry">
                        <mxPoint x="660" y="534.4099999999999" as="sourcePoint"/>
                        <mxPoint x="796" y="534.4099999999999" as="targetPoint"/>
                    </mxGeometry>
                </mxCell>
            </root>
        </mxGraphModel>
    </diagram>
</mxfile>